<svg xmlns="http://www.w3.org/2000/svg" viewBox="0 0 750 500"><g id="freepik--background-complete--inject-6"><path d="M261.4,117.44c-5.55,0-144.11-1-183.25-1-2.74,0,.72-4.74,2.23-5.07,4.82-1,9.83-1.11,14.72-1.62a48.12,48.12,0,0,0,14-3.51c3.85-1.62,7.7-3.51,11.87-4.15,8.06-1.27,15.13,3.1,22.7,5a17.1,17.1,0,0,0,13.74-1.88c3.5-2.1,6.68-4.61,10.33-6.46A56.66,56.66,0,0,1,213,96.74a52.54,52.54,0,0,1,9.9,5.07c3.7,2.42,6.88,5.52,10.59,7.92,8.2,5.31,18.35,3.58,27.3,6.62C261.32,116.52,261.88,117.44,261.4,117.44Z" style="fill:#ebebeb"></path><path d="M707.69,275.82c-5.55,0-144.11-1-183.25-1-2.74,0,.72-4.74,2.23-5.07,4.82-1.06,9.83-1.11,14.72-1.62a48.12,48.12,0,0,0,14-3.51c3.85-1.63,7.7-3.51,11.87-4.16,8.06-1.26,15.13,3.11,22.7,5a17.1,17.1,0,0,0,13.74-1.88c3.5-2.1,6.68-4.61,10.33-6.46a56.66,56.66,0,0,1,45.28-2.08,52.93,52.93,0,0,1,9.91,5.07c3.69,2.42,6.87,5.52,10.58,7.92,8.21,5.31,18.35,3.58,27.3,6.62C707.62,274.9,708.17,275.82,707.69,275.82Z" style="fill:#ebebeb"></path><path d="M370.38,54.64c-7.34,0-130.87.81-138.63.56-.56,0-.86-.84-.31-1.11,4.9-2.42,10.45-1.94,15.54-3.65,3-1,4.83-3,6.9-5.21a14.41,14.41,0,0,1,6.43-4.2,13.73,13.73,0,0,1,7-.22c2.51.6,4.68,2,7.07,2.94,5.94,2.24,11.7.11,15.94-4.28,3.5-3.62,6.93-7,11.68-9a15.46,15.46,0,0,1,12.38-.17c4.53,2,7.64,6.18,11.89,8.66,5.05,3,11.08,2.25,16.65,3.14s9.86,5.58,14.74,8.29A10.57,10.57,0,0,0,363,52.06c1.09,0,2.17-.33,3.25-.46,1.68-.21,3.28-.16,4.41,1.24C370.92,53.18,370.87,54.64,370.38,54.64Z" style="fill:#ebebeb"></path><path d="M681,179.22c-7.34,0-130.88.82-138.64.57-.56,0-.86-.84-.3-1.11,4.89-2.42,10.44-1.94,15.53-3.65,3-1,4.83-3,6.91-5.21a14.32,14.32,0,0,1,6.42-4.2,13.63,13.63,0,0,1,7-.22c2.51.6,4.69,2,7.08,2.94,5.93,2.24,11.7.11,15.93-4.28,3.5-3.62,6.93-7,11.69-9A15.48,15.48,0,0,1,625,154.9c4.53,2.06,7.64,6.19,11.9,8.67,5,3,11.08,2.25,16.65,3.14s9.85,5.58,14.74,8.29a10.56,10.56,0,0,0,5.32,1.65c1.1,0,2.17-.33,3.25-.46,1.68-.21,3.28-.16,4.41,1.24C681.51,177.77,681.45,179.22,681,179.22Z" style="fill:#ebebeb"></path><path d="M498.22,309.36c-7.34,0-130.88.81-138.64.57-.56,0-.86-.84-.3-1.12,4.89-2.42,10.44-1.93,15.53-3.65,3-1,4.83-3,6.91-5.21a14.3,14.3,0,0,1,6.42-4.19,13.52,13.52,0,0,1,7-.22c2.51.6,4.69,2,7.08,2.94,5.93,2.24,11.7.11,15.93-4.28,3.5-3.62,6.93-7,11.69-9a15.52,15.52,0,0,1,12.37-.17c4.53,2,7.64,6.18,11.9,8.67,5,2.94,11.08,2.25,16.65,3.14s9.85,5.58,14.74,8.28a10.37,10.37,0,0,0,5.32,1.65,32.17,32.17,0,0,0,3.25-.46c1.68-.2,3.28-.16,4.41,1.25C498.76,307.91,498.7,309.36,498.22,309.36Z" style="fill:#ebebeb"></path><path d="M513,110.05c-5.36,0-95.55.6-101.22.42-.4,0-.62-.61-.22-.81,3.58-1.77,7.63-1.42,11.34-2.67,2.19-.74,3.53-2.16,5.05-3.8a10.48,10.48,0,0,1,4.69-3.07,10.06,10.06,0,0,1,5.11-.16c1.83.44,3.42,1.49,5.16,2.15,4.34,1.63,8.55.08,11.64-3.13,2.55-2.64,5.06-5.13,8.53-6.56a11.3,11.3,0,0,1,9-.12c3.31,1.5,5.58,4.51,8.69,6.33,3.68,2.15,8.09,1.64,12.15,2.29s7.2,4.07,10.77,6a7.57,7.57,0,0,0,3.89,1.2,23.5,23.5,0,0,0,2.36-.33c1.23-.15,2.4-.12,3.23.91C513.37,109,513.32,110.05,513,110.05Z" style="fill:#ebebeb"></path><path d="M289.16,168.28c-5.36,0-95.55.59-101.22.41-.41,0-.63-.61-.22-.81,3.57-1.77,7.62-1.41,11.34-2.66,2.18-.74,3.52-2.17,5-3.81a10.51,10.51,0,0,1,4.69-3.06,10,10,0,0,1,5.11-.16c1.83.44,3.42,1.48,5.17,2.14,4.33,1.64,8.54.09,11.63-3.12,2.55-2.64,5.06-5.14,8.53-6.56a11.33,11.33,0,0,1,9-.12c3.3,1.49,5.57,4.51,8.68,6.32,3.69,2.15,8.09,1.65,12.16,2.29s7.19,4.08,10.76,6.05a7.64,7.64,0,0,0,3.89,1.21,23.72,23.72,0,0,0,2.37-.34c1.23-.15,2.39-.11,3.22.91C289.55,167.22,289.51,168.28,289.16,168.28Z" style="fill:#ebebeb"></path><path d="M143.78,233.2c-5.36,0-95.55.59-101.22.41-.4,0-.62-.61-.22-.81,3.57-1.77,7.63-1.41,11.34-2.67,2.19-.73,3.53-2.16,5-3.8a10.41,10.41,0,0,1,4.7-3.06,9.84,9.84,0,0,1,5.11-.16c1.83.43,3.42,1.48,5.16,2.14,4.33,1.64,8.54.08,11.64-3.12,2.55-2.64,5.06-5.14,8.53-6.56a11.34,11.34,0,0,1,9-.13c3.31,1.5,5.58,4.52,8.69,6.33,3.68,2.15,8.08,1.64,12.15,2.29s7.2,4.08,10.76,6.05a7.64,7.64,0,0,0,3.89,1.21,23.72,23.72,0,0,0,2.37-.34c1.23-.15,2.4-.11,3.22.91C144.17,232.14,144.13,233.2,143.78,233.2Z" style="fill:#ebebeb"></path><path d="M57.31,477.44s54-76,65-82.81c8.39-5.19,32-48.54,49.05-78.83,2.07-3.67,10-.66,11.84-4.05,6.39-11.49,11.57-21,14.24-25.95,5.46-10,36.89-5.39,42,0,2.63,2.78,21.28,43.67,33.16,63.05,3.81,6.22,28.86,10.2,39.15,13.39,9.94,3.09,36.62,61.9,44.34,66.18,42.67,23.61,53.22,44.72,61.7,49H57.31Z" style="fill:#ebebeb"></path><path d="M57.3,477.42v0l0,0Z" style="opacity:0.4"></path><path d="M57.31,477.42v0l0,0Z" style="opacity:0.2"></path><path d="M57.33,477.42H272.08c-13-10.07-40.63-31.89-43-36.58-3.17-6.14-7.29-50.52-8.47-56.41S197.4,343.38,196.49,337s2.72-52.46,2.79-53.41h0l-.05,0a2.05,2.05,0,0,0-.23.2,3.25,3.25,0,0,0-.27.26c-.09.08-.17.17-.25.25s-.16.17-.22.25a3.15,3.15,0,0,0-.24.3c0,.05-.07.08-.09.12a2.83,2.83,0,0,0-.2.28,1.18,1.18,0,0,0-.11.19,1.92,1.92,0,0,0-.18.31l-.4.71c-.13.26-.28.52-.42.79s-.31.55-.46.83l-.49.9c-2.9,5.31-7.29,13.36-12.48,22.7a2,2,0,0,1-.23.34,1.72,1.72,0,0,1-.25.28,2.45,2.45,0,0,1-.35.29,2,2,0,0,1-.29.17s-.7,22.24-.55,24.21,6.5,16.1,6.88,19.16-.57,14.87,0,17.4c.35,1.46,6.7,16.91,8.36,20.7.46,1-4.56.35-4.7.35-.63,0-6.56-13.74-7.7-14.72s-2.08-19.46-2.88-20.86S173,342.39,172,340.7s-.63-24.89-.63-24.89c-3.21,5.67-6.64,11.81-10.16,18.08l-2.65,4.7c-.3.52-.59,1.05-.89,1.58-.81,1.44-1.62,2.89-2.44,4.32q-1.68,3-3.35,5.86c-.55,1-1.1,1.95-1.66,2.91s-1.11,1.91-1.66,2.85-1.09,1.9-1.64,2.83c-2.17,3.74-4.31,7.34-6.37,10.74-.52.85-1,1.69-1.54,2.5-3.91,6.35-7.5,11.83-10.52,15.85-.5.65-1,1.27-1.43,1.84-.32.4-.63.78-.93,1.13l-.55.63a21.91,21.91,0,0,1-1.52,1.6s18.94,16.45,21.73,21.12,9.6,34.28,11.79,37.68,16.74,17,16.14,18.12-27.47-5.53-30.51-11.92-9.53-30.61-12.54-33.9c-2.29-2.52-13.22-13.5-19.15-18.7C86.15,436.06,58.4,476.33,57.33,477.42Z" style="opacity:0.1"></path><path d="M262.1,402.91c.83.75,16.21-4.14,17.13-4.47s5.93-15.12,6.9-14.86,13.7-4.07,15.41-6,6.15-16.21,6.15-16.21h0l-4.19-1.32c-9.51-2.28-21.88-5-27.83-8.56-.32,3.08-1.86,18.15-1.57,20.51.33,2.64,2.84,8.74,2.08,10.69S261.26,402.17,262.1,402.91Z" style="opacity:0.1"></path></g><g id="freepik--Mountains--inject-6"><path d="M705.48,477.44s-66.57-120.12-80.15-130.89C615,338.34,585.9,269.82,564.83,222c-2.55-5.8-12.26-1-14.59-6.41-7.89-18.16-14.27-33.24-17.57-41-6.73-15.84-47.42-5.68-51.83,0-3.34,4.32-26.25,69-40.89,99.65-4.71,9.84-35.6,16.13-48.29,21.18C379.4,300.23,346.5,393.2,337,400c-52.63,37.32-65.63,70.69-76.09,77.46H705.48Z" style="fill:#FFC727"></path><path d="M705.48,477.44s-66.57-120.12-80.15-130.89C615,338.34,585.9,269.82,564.83,222c-2.55-5.8-12.26-1-14.59-6.41-7.89-18.16-14.27-33.24-17.57-41-6.73-15.84-47.42-5.68-51.83,0-3.34,4.32-26.25,69-40.89,99.65-4.71,9.84-35.6,16.13-48.29,21.18C379.4,300.23,346.5,393.2,337,400c-52.63,37.32-65.63,70.69-76.09,77.46H705.48Z" style="opacity:0.4"></path><path d="M705.48,477.41v0Z" style="opacity:0.4"></path><path d="M705.48,477.41v0l0,0Z" style="opacity:0.2"></path><path d="M705.46,477.41H440.61c16-15.93,50.1-50.41,53.08-57.83,3.91-9.69,9-79.85,10.45-89.15s28.57-64.89,29.7-74.9-3.36-82.93-3.45-84.43v0l.06.07a2.93,2.93,0,0,1,.29.31,4.91,4.91,0,0,1,.33.41l.31.4c.09.14.19.26.27.4s.21.31.3.47.08.12.11.19a4.56,4.56,0,0,1,.24.44c.05.1.1.19.14.29s.16.32.22.49c.16.37.32.73.49,1.14l.52,1.23.57,1.33.6,1.41c3.58,8.39,9,21.13,15.39,35.88a3.55,3.55,0,0,0,.29.55,2.07,2.07,0,0,0,.31.43,2.64,2.64,0,0,0,.42.46,2.42,2.42,0,0,0,.36.27s.87,35.15.68,38.28-8,25.43-8.48,30.28.7,23.49,0,27.49c-.43,2.32-8.26,26.74-10.31,32.72-.57,1.63,5.62.56,5.79.56.78,0,8.1-21.72,9.5-23.27s2.57-30.75,3.55-33,10.51-26.37,11.76-29,.78-39.34.78-39.34c3.95,9,8.19,18.67,12.52,28.58l3.27,7.43c.37.82.73,1.66,1.1,2.49q1.5,3.44,3,6.84,2.07,4.67,4.12,9.26c.69,1.54,1.37,3.07,2.06,4.59s1.36,3,2,4.52,1.35,3,2,4.46c2.68,5.92,5.33,11.6,7.87,17,.63,1.34,1.26,2.67,1.89,4,4.82,10,9.24,18.7,13,25.05.62,1,1.2,2,1.77,2.91.39.63.77,1.22,1.15,1.78.23.35.45.68.67,1,.66,1,1.29,1.82,1.88,2.53,0,0-23.36,26-26.81,33.39s-11.83,54.18-14.53,59.55-20.65,26.9-19.91,28.64,33.88-8.74,37.63-18.83,11.76-48.39,15.46-53.59c2.83-4,16.31-21.34,23.62-29.56C669.91,412,704.13,475.68,705.46,477.41Z" style="opacity:0.1"></path><path d="M452.92,359.64c-1,1.18-20-6.55-21.13-7.07s-7.31-23.9-8.51-23.49-16.89-6.44-19-9.45S396.69,294,396.69,294h0s2-.8,5.17-2.08c11.72-3.61,27-7.93,34.31-13.54.41,4.87,2.3,28.7,2,32.43-.41,4.16-3.51,13.81-2.57,16.88S454,358.46,452.92,359.64Z" style="opacity:0.1"></path><path d="M473.12,477.42S364.27,430.6,349.37,425.5c-8.12-2.78-38.31-39.21-66.52-69.8-4.7-5.11-21.08-5.38-25.36-9.77-2.31-2.38-19.21-20.67-20.65-21.54-3.43-2.07-15.89-1.54-23.3-1.54-8.07,0-69.93,87.94-76.37,95.34S95.86,452.27,85.07,455s-40.55,22.44-40.55,22.44Z" style="fill:#FFC727"></path><path d="M473.12,477.42S364.27,430.6,349.37,425.5c-8.12-2.78-38.31-39.21-66.52-69.8-4.7-5.11-21.08-5.38-25.36-9.77-2.31-2.38-19.21-20.67-20.65-21.54-3.43-2.07-15.89-1.54-23.3-1.54-8.07,0-69.93,87.94-76.37,95.34S95.86,452.27,85.07,455s-40.55,22.44-40.55,22.44Z" style="opacity:0.5"></path><path d="M222.92,420.87c-1.49-1.23-2-15.63-2.43-18.23-.43-2.43-21.55-25.39-21.73-28.66s14.78-51.13,14.78-51.13c-8.07,0-69.93,87.95-76.37,95.34-.41.45-.92,1-1.53,1.6-.31.3-.64.62-1,.95-1.23,1.17-2.75,2.51-4.48,4-.5.42-1,.86-1.54,1.29-.79.67-1.61,1.35-2.47,2l-1.75,1.4c-.89.72-1.82,1.44-2.76,2.18l-1.91,1.48c-1.94,1.49-3.94,3-6,4.48A209.72,209.72,0,0,1,92.5,451.68l-1.59.86c-.51.27-1,.51-1.5.75-.72.35-1.41.65-2,.91-.42.18-.82.32-1.21.46s-.74.23-1.08.32a19.2,19.2,0,0,0-2.23.7c-.41.14-.83.3-1.27.48l-1.34.56-1.42.63-1.49.71c-1,.48-2.06,1-3.14,1.56s-2.18,1.15-3.3,1.76l-2.53,1.41c-.29.15-.57.31-.86.48-.57.31-1.13.64-1.7,1l-.85.49-1.69,1c-9.83,5.78-18.73,11.69-18.73,11.69H302C276.11,459.19,224,421.77,222.92,420.87ZM164,416.55c-.84-.29-6.45-8-7.24-8.29s-2.47-6.34-2-6.64a26.55,26.55,0,0,1,3.43-1.62c.42-.07,2.68,3.73,3.1,3.73s8.21,0,9,.58,6.7,11.28,6.47,12.24C176.38,417.81,164.86,416.83,164,416.55Z" style="opacity:0.1"></path></g><g id="freepik--Trees--inject-6"><path d="M47,477.44H95.3L89.64,452.5a32.07,32.07,0,0,1-15.43-4.82l15,2.79L82.27,420a28.3,28.3,0,0,1-6.15-3.92l5.67,1.79-.92-4.06a29.27,29.27,0,0,1-8.52-5.64l7.94,3.1L71.15,370.9,66,393.7l4.64-1.16a33.28,33.28,0,0,1-5,2.78L58.2,428l5.38-1.35a35.8,35.8,0,0,1-5.78,3.14l-5.14,22.62,10.5-2.62a38.23,38.23,0,0,1-11,5l-.89,3.94,16.13-4a38.41,38.41,0,0,1-16.59,6l-1.28,5.64,5.37-1.33a36,36,0,0,1-5.77,3.12Z" style="fill:#455a64"></path><path d="M55.88,445.17c2.67,1,12.57,5.05,14.7,6.22,0-.45,0-.9,0-1.35-2.39-1.41-4.78-2.8-7.18-4.19a83,83,0,0,1-7.72-4.59c-.12-.09-.06-.33.11-.26a63.18,63.18,0,0,1,7.55,4.18c2.44,1.42,4.84,2.89,7.24,4.38,0-3.45,0-6.89,0-10.34a83,83,0,0,1-11.28-5.73c-.12-.08,0-.3.11-.24a82.22,82.22,0,0,1,11.18,5.51c0-1.79-.06-15.59.39-33.05-2.35-1.19-4.77-2.23-7.11-3.42A.16.16,0,0,1,64,402c2.38.93,4.67,2,7,3.06.12-4.76.3-9.51.59-14.26a.13.13,0,0,1,.25,0c.33,8.83.3,25.92.19,34.76,2.43-1.94,5-3.65,7.5-5.54.09-.07.19.09.09.17-2.58,2-5,4.15-7.6,6.11,0,.5,0,1,0,1.5,2.64-1.21,5.31-2.33,8-3.47.21-.09.39.21.18.31-2.71,1.3-5.42,2.63-8.17,3.86-.06,4.38-.46,20.18-.62,27.82,5-2.51,10-5,15-7.34.19-.09.36.18.16.29a157.74,157.74,0,0,1-15.21,7.64c-.14,6.36-.27,13.89-.35,20.24a.3.3,0,0,1-.6,0c.09-8.1.1-17.38.12-25.49C68,451,58,446.77,55.69,445.61,55.45,445.49,55.62,445.07,55.88,445.17Z" style="fill:#37474f"></path><path d="M352.89,477.44h48.3l-5.65-24.94a32.07,32.07,0,0,1-15.43-4.82l15,2.79L388.17,420a28.3,28.3,0,0,1-6.15-3.92l5.67,1.79-.92-4.06a29.27,29.27,0,0,1-8.52-5.64l7.94,3.1-9.14-40.35-5.17,22.8,4.64-1.16a33.28,33.28,0,0,1-5,2.78L364.1,428l5.38-1.35a35.8,35.8,0,0,1-5.78,3.14l-5.14,22.62,10.49-2.62a38.09,38.09,0,0,1-11,5l-.89,3.94,16.12-4a38.33,38.33,0,0,1-16.58,6l-1.28,5.64,5.37-1.33a36,36,0,0,1-5.77,3.12Z" style="fill:#455a64"></path><path d="M361.78,445.17c2.67,1,12.56,5.05,14.7,6.22,0-.45,0-.9,0-1.35-2.39-1.41-4.79-2.8-7.18-4.19a84.52,84.52,0,0,1-7.73-4.59c-.11-.09-.05-.33.11-.26a62.54,62.54,0,0,1,7.56,4.18c2.43,1.42,4.84,2.89,7.24,4.38,0-3.45,0-6.89,0-10.34a83,83,0,0,1-11.28-5.73c-.12-.08,0-.3.11-.24a82.22,82.22,0,0,1,11.18,5.51c0-1.79-.06-15.59.39-33.05-2.35-1.19-4.77-2.23-7.11-3.42a.16.16,0,0,1,.12-.29c2.38.93,4.67,2,7,3.06.13-4.76.31-9.51.6-14.26a.13.13,0,0,1,.25,0c.33,8.83.3,25.92.19,34.76,2.43-1.94,5-3.65,7.5-5.54.09-.07.19.09.09.17-2.59,2-5,4.15-7.6,6.11,0,.5,0,1,0,1.5,2.64-1.21,5.31-2.33,8-3.47.2-.09.39.21.18.31-2.72,1.3-5.42,2.63-8.17,3.86-.06,4.38-.46,20.18-.62,27.82,5-2.51,10-5,15-7.34.2-.09.36.18.17.29a156.76,156.76,0,0,1-15.22,7.64c-.13,6.36-.26,13.89-.34,20.24a.3.3,0,0,1-.6,0c.09-8.1.1-17.38.12-25.49-2.62-.64-12.54-4.89-14.89-6.05C361.35,445.49,361.52,445.07,361.78,445.17Z" style="fill:#37474f"></path><path d="M654.7,477.44H703l-5.65-24.94a32.07,32.07,0,0,1-15.43-4.82l15,2.79L690,420a28.06,28.06,0,0,1-6.15-3.92l5.66,1.79-.91-4.06a29.27,29.27,0,0,1-8.52-5.64l7.94,3.1-9.14-40.35-5.17,22.8,4.64-1.16a33.28,33.28,0,0,1-5,2.78L665.92,428l5.37-1.35a35.24,35.24,0,0,1-5.78,3.14l-5.13,22.62,10.49-2.62a38.09,38.09,0,0,1-11,5l-.89,3.94,16.12-4a38.33,38.33,0,0,1-16.58,6l-1.28,5.64,5.37-1.33a35.86,35.86,0,0,1-5.78,3.12Z" style="fill:#455a64"></path><path d="M663.59,445.17c2.68,1,12.57,5.05,14.71,6.22,0-.45,0-.9,0-1.35-2.39-1.41-4.79-2.8-7.18-4.19a84.52,84.52,0,0,1-7.73-4.59c-.11-.09,0-.33.11-.26a63.31,63.31,0,0,1,7.56,4.18c2.43,1.42,4.84,2.89,7.24,4.38,0-3.45,0-6.89,0-10.34a82.39,82.39,0,0,1-11.28-5.73c-.12-.08,0-.3.1-.24a81.76,81.76,0,0,1,11.19,5.51c0-1.79-.06-15.59.39-33.05-2.35-1.19-4.77-2.23-7.11-3.42a.16.16,0,0,1,.12-.29c2.38.93,4.67,2,7,3.06.13-4.76.31-9.51.6-14.26a.13.13,0,0,1,.25,0c.33,8.83.3,25.92.19,34.76,2.43-1.94,5-3.65,7.5-5.54.09-.07.19.09.09.17-2.59,2-5,4.15-7.6,6.11,0,.5,0,1,0,1.5,2.64-1.21,5.31-2.33,8-3.47.2-.09.39.21.18.31-2.72,1.3-5.42,2.63-8.17,3.86-.06,4.38-.46,20.18-.62,27.82,5-2.51,10-5,15-7.34.2-.09.36.18.17.29a156.76,156.76,0,0,1-15.22,7.64c-.13,6.36-.26,13.89-.34,20.24a.3.3,0,0,1-.6,0c.08-8.1.1-17.38.12-25.49-2.62-.64-12.54-4.89-14.89-6.05C663.17,445.49,663.34,445.07,663.59,445.17Z" style="fill:#37474f"></path><path d="M147,477.44h48.31l-5.65-24.94a32,32,0,0,1-15.43-4.82l15,2.79L182.31,420a28.06,28.06,0,0,1-6.15-3.92l5.66,1.79-.91-4.06a29.27,29.27,0,0,1-8.52-5.64l7.94,3.1-9.15-40.35L166,393.7l4.64-1.16a33.28,33.28,0,0,1-5,2.78L158.23,428l5.38-1.35a35.24,35.24,0,0,1-5.78,3.14l-5.13,22.62,10.49-2.62a38.25,38.25,0,0,1-11,5l-.89,3.94,16.12-4a38.33,38.33,0,0,1-16.58,6l-1.28,5.64,5.37-1.33a35.86,35.86,0,0,1-5.78,3.12Z" style="fill:#455a64"></path><path d="M155.91,445.17c2.67,1,12.57,5.05,14.71,6.22V450c-2.38-1.41-4.78-2.8-7.17-4.19a84.52,84.52,0,0,1-7.73-4.59c-.12-.09-.05-.33.11-.26a63.31,63.31,0,0,1,7.56,4.18c2.43,1.42,4.84,2.89,7.24,4.38,0-3.45,0-6.89,0-10.34a82.39,82.39,0,0,1-11.28-5.73c-.12-.08,0-.3.1-.24a81.08,81.08,0,0,1,11.18,5.51c0-1.79,0-15.59.39-33.05-2.34-1.19-4.76-2.23-7.11-3.42-.15-.08,0-.35.12-.29,2.38.93,4.68,2,7,3.06.13-4.76.31-9.51.6-14.26a.13.13,0,0,1,.25,0c.33,8.83.3,25.92.19,34.76,2.43-1.94,5-3.65,7.49-5.54.1-.07.19.09.1.17-2.59,2-5,4.15-7.6,6.11,0,.5,0,1,0,1.5,2.63-1.21,5.31-2.33,8-3.47.21-.09.4.21.19.31-2.72,1.3-5.42,2.63-8.17,3.86-.06,4.38-.46,20.18-.63,27.82,5-2.51,10-5,15-7.34.19-.09.36.18.17.29a156.76,156.76,0,0,1-15.22,7.64c-.13,6.36-.26,13.89-.35,20.24a.3.3,0,0,1-.6,0c.09-8.1.11-17.38.13-25.49-2.63-.64-12.54-4.89-14.89-6.05C155.48,445.49,155.65,445.07,155.91,445.17Z" style="fill:#37474f"></path><path d="M603.26,477.44h-52l2.54-13.68c10.9-.71,19.4-8.1,19.4-8.1l-19,5.79,7-37.74a37.72,37.72,0,0,0,7.89-4.95L561.71,421l1.14-6.15a38.31,38.31,0,0,0,11.2-6.34l-10.62,3.24L570.06,376a33.12,33.12,0,0,0,4-2.85l-3.69,1.13,6.88-37.09,9.85,53.14-8.56-4.09a31.91,31.91,0,0,0,9.18,7.41h0l9.28,50-14.4-5.55a31.61,31.61,0,0,0,14.95,8.54l1,5.11-7.74-1.76a28.7,28.7,0,0,0,8.26,4.6Z" style="fill:#37474f"></path><path d="M594.57,431.85c-3.12,1.19-14.18,5.66-16.67,7,0-.52,0-1.05,0-1.57q4.17-2.46,8.36-4.88c3-1.74,5-2.36,7.77-4.42.14-.1.06-.38-.12-.3a53.87,53.87,0,0,0-7.58,3.93c-2.83,1.66-5.64,3.38-8.43,5.1q0-6,0-12A96.52,96.52,0,0,0,591,418c.14-.09,0-.35-.12-.28a95.89,95.89,0,0,0-13,6.42c0-2.09,0-4.17-.05-6.26-.11-10.74-.13-21.49-.41-32.24,2.74-1.38,5.55-2.59,8.28-4a.18.18,0,0,0-.14-.33c-2.77,1.08-5.44,2.37-8.16,3.56-.15-5.54-.36-11.08-.7-16.61a.14.14,0,1,0-.28,0c-.39,10.29-.35,20.59-.22,30.88-2.84-2.26-5.86-4.25-8.74-6.45-.11-.08-.22.11-.11.19,3,2.29,5.83,4.83,8.86,7.12,0,.58,0,1.16,0,1.74-3.07-1.4-6.19-2.71-9.29-4-.24-.11-.46.24-.21.36,3.16,1.51,6.31,3.06,9.51,4.49.07,5.1.16,10.2.23,15.3.11,8.91.31,17.81.5,26.72q-8.7-4.39-17.52-8.56c-.22-.1-.42.21-.19.34a183.31,183.31,0,0,0,17.72,8.9c.16,7.4.31,24.4.41,31.8a.35.35,0,0,0,.69,0c-.1-9.44-.11-28.47-.14-37.91,3.06-.76,14.14-5.48,16.88-6.84C595.06,432.22,594.87,431.73,594.57,431.85Z" style="fill:#455a64"></path><path d="M365.45,477.44h-38l4.44-19.6a25.15,25.15,0,0,0,12.13-3.79l-11.77,2.19,5.43-24a22,22,0,0,0,4.83-3.08l-4.45,1.41.72-3.2a22.86,22.86,0,0,0,6.7-4.43l-6.24,2.44,7.18-31.72,4.07,17.93-3.65-.91a26.72,26.72,0,0,0,3.94,2.18l5.82,25.68-4.22-1.06A27.33,27.33,0,0,0,357,440l4,17.78-8.24-2.06a29.94,29.94,0,0,0,8.67,3.92l.7,3.1-12.67-3.16a30.11,30.11,0,0,0,13,4.75l1,4.43-4.21-1.05a27.94,27.94,0,0,0,4.53,2.46Z" style="fill:#37474f"></path><path d="M358.47,452.07c-2.1.81-9.88,4-11.56,4.9,0-.36,0-.71,0-1.07l5.65-3.29a66.44,66.44,0,0,0,6.07-3.61c.09-.06,0-.25-.09-.2a52.89,52.89,0,0,0-5.94,3.28c-1.91,1.12-3.8,2.28-5.69,3.44,0-2.7,0-5.41,0-8.12a64.08,64.08,0,0,0,8.86-4.5c.1-.06,0-.24-.08-.19a65,65,0,0,0-8.78,4.33c0-1.41,0-12.25-.31-26,1.84-.93,3.74-1.75,5.59-2.69.12-.06,0-.27-.1-.22-1.87.73-3.67,1.6-5.51,2.4-.1-3.74-.24-7.47-.47-11.21a.1.1,0,0,0-.19,0c-.26,6.94-.24,20.38-.15,27.33-1.91-1.53-4-2.88-5.89-4.36-.08-.05-.15.08-.08.13,2,1.55,3.94,3.26,6,4.81,0,.39,0,.78,0,1.17-2.07-.94-4.17-1.83-6.26-2.72-.17-.07-.31.16-.15.24,2.14,1,4.26,2.07,6.42,3,.05,3.45.36,15.87.49,21.87q-5.87-3-11.82-5.77c-.15-.07-.28.15-.13.23a127.27,127.27,0,0,0,12,6c.11,5,.21,10.91.28,15.91a.24.24,0,0,0,.47,0c-.07-6.37-.08-13.67-.1-20a116,116,0,0,0,11.7-4.76C358.8,452.33,358.67,452,358.47,452.07Z" style="fill:#455a64"></path><path d="M668.53,477.44h-38l4.44-19.6a25.15,25.15,0,0,0,12.13-3.79l-11.76,2.19,5.42-24a22.26,22.26,0,0,0,4.84-3.08l-4.45,1.41.72-3.2a22.82,22.82,0,0,0,6.69-4.43l-6.24,2.44,7.19-31.72,4.06,17.93-3.65-.91a27.42,27.42,0,0,0,3.94,2.18l5.83,25.68-4.23-1.06A27.33,27.33,0,0,0,660,440l4,17.78-8.25-2.06a29.94,29.94,0,0,0,8.67,3.92l.7,3.1-12.67-3.16a30.18,30.18,0,0,0,13,4.75l1,4.43-4.22-1.05a27.81,27.81,0,0,0,4.54,2.46Z" style="fill:#37474f"></path><path d="M661.54,452.07c-2.1.81-9.88,4-11.56,4.9V455.9l5.64-3.29a63.83,63.83,0,0,0,6.07-3.61c.09-.06,0-.25-.09-.2a52.89,52.89,0,0,0-5.94,3.28c-1.91,1.12-3.8,2.28-5.68,3.44q0-4,0-8.12a64.77,64.77,0,0,0,8.87-4.5c.09-.06,0-.24-.08-.19a64.56,64.56,0,0,0-8.79,4.33c0-1.41,0-12.25-.31-26,1.85-.93,3.75-1.75,5.59-2.69.12-.06,0-.27-.09-.22-1.87.73-3.68,1.6-5.51,2.4-.1-3.74-.24-7.47-.47-11.21a.1.1,0,0,0-.2,0c-.25,6.94-.23,20.38-.15,27.33-1.91-1.53-3.94-2.88-5.89-4.36-.07-.05-.15.08-.07.13,2,1.55,3.93,3.26,6,4.81,0,.39,0,.78,0,1.17-2.08-.94-4.18-1.83-6.27-2.72-.17-.07-.31.16-.14.24,2.13,1,4.25,2.07,6.41,3,0,3.45.37,15.87.5,21.87q-5.88-3-11.82-5.77c-.15-.07-.29.15-.14.23a127.27,127.27,0,0,0,12,6c.11,5,.21,10.91.28,15.91a.24.24,0,0,0,.47,0c-.07-6.37-.08-13.67-.1-20a115.2,115.2,0,0,0,11.71-4.76C661.88,452.33,661.74,452,661.54,452.07Z" style="fill:#455a64"></path><path d="M127.33,477.44h-52l2.54-13.68c10.9-.71,19.4-8.1,19.4-8.1l-19,5.79,7-37.74a38.06,38.06,0,0,0,7.89-4.95L85.77,421l1.14-6.15a38.28,38.28,0,0,0,11.21-6.34L87.5,411.76,94.12,376a33.86,33.86,0,0,0,4-2.85l-3.7,1.13,6.88-37.09,9.86,53.14-8.56-4.09a31.87,31.87,0,0,0,9.17,7.41h0l9.28,50-14.39-5.55a31.57,31.57,0,0,0,14.95,8.54l1,5.11-7.75-1.76a28.75,28.75,0,0,0,8.27,4.6Z" style="fill:#37474f"></path><path d="M118.63,431.85c-3.11,1.19-14.18,5.66-16.66,7,0-.52,0-1.05,0-1.57q4.17-2.46,8.36-4.88c3-1.74,5-2.36,7.77-4.42.14-.1.06-.38-.13-.3a54.31,54.31,0,0,0-7.57,3.93c-2.84,1.66-5.64,3.38-8.43,5.1q0-6,0-12A96.4,96.4,0,0,0,115,418c.15-.09,0-.35-.12-.28a95.89,95.89,0,0,0-13,6.42c0-2.09,0-4.17,0-6.26-.12-10.74-.14-21.49-.41-32.24,2.73-1.38,5.55-2.59,8.28-4,.18-.09,0-.4-.14-.33-2.77,1.08-5.44,2.37-8.16,3.56-.15-5.54-.36-11.08-.7-16.61a.15.15,0,0,0-.29,0c-.38,10.29-.35,20.59-.22,30.88-2.83-2.26-5.85-4.25-8.73-6.45-.11-.08-.22.11-.11.19,3,2.29,5.83,4.83,8.85,7.12,0,.58,0,1.16,0,1.74-3.07-1.4-6.18-2.71-9.28-4-.25-.11-.46.24-.22.36,3.16,1.51,6.31,3.06,9.52,4.49q.11,7.65.22,15.3c.12,8.91.31,17.81.5,26.72q-8.68-4.39-17.51-8.56c-.23-.1-.42.21-.2.34a182.33,182.33,0,0,0,17.73,8.9c.15,7.4.31,24.4.4,31.8,0,.44.71.45.7,0-.1-9.44-.12-28.47-.14-37.91,3-.76,14.14-5.48,16.88-6.84C119.13,432.22,118.93,431.73,118.63,431.85Z" style="fill:#455a64"></path></g><g id="freepik--Floor--inject-6"><polygon points="42.13 477.44 707.87 477.44 677.28 454.16 631.87 412.21 559.03 381.18 493.19 403.9 396.4 396.79 318.84 432.39 281.75 436.76 212.92 453.39 139.6 436.76 111.3 447.12 76.71 454.16 42.13 477.44" style="fill:#FFC727"></polygon><g style="opacity:0.7000000000000001"><polygon points="42.13 477.44 707.87 477.44 677.28 454.16 631.87 412.21 559.03 381.18 493.19 403.9 396.4 396.79 318.84 432.39 281.75 436.76 212.92 453.39 139.6 436.76 111.3 447.12 76.71 454.16 42.13 477.44"></polygon></g><path d="M700.91,472.14H50l.72-.48c79.32-1.42,304.74-5.49,308.41-6.09,4.45-.73,61.39-11.24,65.62-11.34s75.5,1.56,75.5,1.56c4,.59,61.27-9.45,67.2-10.9,4.45-1.09,53.66-13.74,78.13-20l31.7,29.29Z" style="opacity:0.2"></path><path d="M630,411.39c-29.47-1.43-73.37-3.45-78.26-3.06-10,.8-70.12,24.18-80.72,24.84-3.84.24-16.39.46-31.09.6H438c-25.61.23-56.7.21-59.54-.35-4.59-.9-47.51,10.06-53.19,9.1-3.39-.58-24.14-3.69-40.44-6.13h.12L302,434.61h0c11.74,1.53,22.58,2.73,23.78,2.13,2.71-1.36,48.46-13.64,53.62-13.79s87.76,6.54,89.28,6.44,70.58-34.08,80.09-37.51c2.28-.83,17.37-.81,34.18-.51Z" style="opacity:0.2"></path><g style="opacity:0.2"><path d="M616.21,422.51c-.14-4.65-9.72-6-11.54-5.53s-.53,6.91,3.42,8S616.27,424.53,616.21,422.51Z"></path><path d="M553.45,417.91c4.07-1.72,2.28-5.27,1.27-5.66s-6.29,2.32-6,4S551.68,418.65,553.45,417.91Z"></path><path d="M307,449.5c-1.33-2.63-7.19-.84-8.09-.06s1.55,4.1,4.1,3.64S307.6,450.64,307,449.5Z"></path><path d="M598.83,422.53c-1.43.11-3.81,1.85-4.09,3.44s2.63,2.7,4.58,1.6S602.74,422.21,598.83,422.53Z"></path><path d="M501.07,438.56c-1.43.12-3.81,1.86-4.09,3.45s2.63,2.7,4.58,1.59S505,438.25,501.07,438.56Z"></path><path d="M417.75,404.42c-1.43.11-3.81,1.85-4.09,3.44s2.63,2.7,4.58,1.6S421.67,404.1,417.75,404.42Z"></path><path d="M89.18,466.13c1.26.69,4.21.52,5.31-.66s-.74-3.7-3-3.83S85.73,464.27,89.18,466.13Z"></path><path d="M294.71,453.48c-1.43.11-3.81,1.86-4.09,3.45s2.63,2.69,4.58,1.59S298.62,453.17,294.71,453.48Z"></path><path d="M406.16,407.27c1.31.59.85,3.16-1.35,2.51S404.46,406.5,406.16,407.27Z"></path><path d="M371.7,450.5c1.31.6.85,3.17-1.35,2.52S370,449.73,371.7,450.5Z"></path><path d="M438,443.11c1.31.6.85,3.16-1.35,2.52S436.26,442.34,438,443.11Z"></path><path d="M143.06,442.33c1.31.59.85,3.16-1.35,2.51S141.35,441.55,143.06,442.33Z"></path><path d="M482.35,410.36c.5-.82,2.17-.31,1.56,1.11S481.7,411.43,482.35,410.36Z"></path><path d="M553.93,384.81c.5-.82,2.17-.31,1.56,1.1S553.27,385.88,553.93,384.81Z"></path><path d="M487.87,446.77c.5-.83,2.17-.31,1.56,1.1S487.21,447.84,487.87,446.77Z"></path><path d="M376,445.51c.5-.82,2.18-.31,1.57,1.11S375.37,446.58,376,445.51Z"></path><path d="M253.55,451.7c.5-.82,2.17-.31,1.56,1.11S252.9,452.77,253.55,451.7Z"></path><path d="M539.49,443.7c.51-.82,2.18-.3,1.57,1.11S538.84,444.77,539.49,443.7Z"></path><path d="M605.15,428.31c.5-.82,2.17-.31,1.56,1.11S604.49,429.38,605.15,428.31Z"></path><path d="M412.31,403.16c1.07.58.53,2-.74,1.58A.89.89,0,1,1,412.31,403.16Z"></path><path d="M178.26,452.57c.38-.74,1.38-.39,1.09.49A.61.61,0,1,1,178.26,452.57Z"></path><path d="M558.51,386.22c.38-.75,1.38-.39,1.09.49A.61.61,0,1,1,558.51,386.22Z"></path><path d="M380.42,450.77c.39-.74,1.39-.39,1.1.49A.62.62,0,1,1,380.42,450.77Z"></path><path d="M237.61,458.3c.38-.75,1.38-.39,1.09.49A.61.61,0,1,1,237.61,458.3Z"></path><path d="M289.45,444c.39-.74,1.39-.39,1.1.49A.62.62,0,1,1,289.45,444Z"></path><path d="M186,455.32c1.74,1,.09,5.87-4.13,3.41S182.87,453.61,186,455.32Z"></path></g></g><g id="freepik--Birds--inject-6"><path d="M140,131.36a18.13,18.13,0,0,1,2.22-1,9.47,9.47,0,0,1,2.43-.55,1.87,1.87,0,0,1,.75.08,1,1,0,0,1,.23.11l.15.1c.1.07.17.15.26.22a12.27,12.27,0,0,1,.88.89c.55.61,1,1.25,1.52,1.91l-.6-.21a17.5,17.5,0,0,1,2.47-.52,7.84,7.84,0,0,1,1.29-.09,5.43,5.43,0,0,1,.69,0,2.83,2.83,0,0,1,.37.09,3.14,3.14,0,0,1,.37.18,4.41,4.41,0,0,1,1,.94,12,12,0,0,1,.73,1,16.54,16.54,0,0,1,1.15,2.21c-.53-.64-1-1.28-1.59-1.88-.27-.3-.54-.6-.83-.87a4,4,0,0,0-.87-.68,2.23,2.23,0,0,0-1-.09,7.88,7.88,0,0,0-1.16.16c-.77.14-1.57.33-2.33.54l-.38.1-.22-.31c-.44-.64-.93-1.27-1.41-1.88a10.5,10.5,0,0,0-.75-.86,1.62,1.62,0,0,0-.19-.18l-.08-.07s0,0,0,0a1.37,1.37,0,0,0-.43-.08,11.42,11.42,0,0,0-2.28.22C141.61,131.05,140.82,131.21,140,131.36Z" style="fill:#263238"></path><path d="M148.77,155a26.78,26.78,0,0,1,3-2.05,13.64,13.64,0,0,1,3.4-1.52,3.05,3.05,0,0,1,1.13-.1,2.18,2.18,0,0,1,.37.09l.25.12a4.53,4.53,0,0,1,.44.23,17.76,17.76,0,0,1,1.56,1.06c1,.74,1.88,1.53,2.79,2.36l-.95-.14a28.9,28.9,0,0,1,3.48-1.49,18.32,18.32,0,0,1,1.87-.51,6.75,6.75,0,0,1,1-.12,3.71,3.71,0,0,1,.57,0,4.25,4.25,0,0,1,.59.15,6.43,6.43,0,0,1,1.71,1.09c.49.41.94.86,1.38,1.31a23.86,23.86,0,0,1,2.33,2.9c-1-.78-1.9-1.57-2.88-2.29a14.54,14.54,0,0,0-1.48-1,5.79,5.79,0,0,0-1.47-.74,3.19,3.19,0,0,0-1.45.14,13.58,13.58,0,0,0-1.66.57c-1.1.43-2.2.94-3.26,1.47l-.54.26-.41-.39c-.84-.81-1.73-1.6-2.62-2.35a14.32,14.32,0,0,0-1.35-1,3,3,0,0,0-.33-.21l-.15-.09s0,0-.06,0a1.74,1.74,0,0,0-.65,0,18.06,18.06,0,0,0-3.29,1C151,154.06,149.89,154.52,148.77,155Z" style="fill:#263238"></path><path d="M628.76,228.31a16.75,16.75,0,0,1,2-1.3,9.27,9.27,0,0,1,2.3-.95,2.24,2.24,0,0,1,.75,0,1.17,1.17,0,0,1,.25.07l.16.08a2.91,2.91,0,0,1,.3.17,10.93,10.93,0,0,1,1,.74c.64.51,1.22,1.06,1.81,1.63l-.63-.11a17.75,17.75,0,0,1,2.36-.92,10.07,10.07,0,0,1,1.26-.3,4.91,4.91,0,0,1,.68-.06,1.63,1.63,0,0,1,.38,0,3,3,0,0,1,.4.11,4.18,4.18,0,0,1,1.11.76,12.57,12.57,0,0,1,.89.9,16,16,0,0,1,1.5,2c-.63-.54-1.24-1.09-1.88-1.59-.31-.25-.63-.5-1-.72a4.06,4.06,0,0,0-1-.53,2.25,2.25,0,0,0-1,.07,9.4,9.4,0,0,0-1.11.34c-.75.27-1.5.59-2.21.92l-.36.16-.27-.27c-.55-.56-1.13-1.1-1.7-1.62a9.72,9.72,0,0,0-.88-.73l-.21-.15-.1-.06h0a1.2,1.2,0,0,0-.44,0,11.69,11.69,0,0,0-2.22.6C630.26,227.75,629.52,228,628.76,228.31Z" style="fill:#263238"></path><path d="M600.34,224.7a27.76,27.76,0,0,1,2.25-2.84,14.25,14.25,0,0,1,2.79-2.47,2.91,2.91,0,0,1,1-.42,1.5,1.5,0,0,1,.38,0l.27,0c.18,0,.33.06.5.09a16.24,16.24,0,0,1,1.79.55c1.16.41,2.26.91,3.37,1.43l-1,.15a28.23,28.23,0,0,1,2.89-2.46,15.06,15.06,0,0,1,1.63-1,6.73,6.73,0,0,1,.94-.43,3.06,3.06,0,0,1,.56-.14,4.08,4.08,0,0,1,.61,0,6.72,6.72,0,0,1,2,.54,16.8,16.8,0,0,1,1.7.84,23.3,23.3,0,0,1,3.1,2.08c-1.16-.46-2.29-.93-3.44-1.34-.57-.2-1.14-.4-1.71-.54a5.55,5.55,0,0,0-1.63-.27A3.29,3.29,0,0,0,617,219a12.36,12.36,0,0,0-1.4,1c-.93.74-1.83,1.56-2.69,2.37l-.43.41-.51-.25c-1-.53-2.13-1-3.2-1.46a13.51,13.51,0,0,0-1.59-.6l-.38-.1-.17,0a.16.16,0,0,0-.07,0,1.76,1.76,0,0,0-.62.19,17,17,0,0,0-2.85,1.93C602.19,223.17,601.28,223.94,600.34,224.7Z" style="fill:#263238"></path><path d="M104.67,154.76a25.5,25.5,0,0,1,2.25-2.84,13.63,13.63,0,0,1,2.79-2.47,3.1,3.1,0,0,1,1.05-.43,2.24,2.24,0,0,1,.38,0l.27,0c.18,0,.33.06.5.09.63.15,1.21.34,1.79.54,1.16.42,2.26.92,3.37,1.43l-.95.15A29.45,29.45,0,0,1,119,148.8a15.06,15.06,0,0,1,1.63-1,6.73,6.73,0,0,1,.94-.43,4.41,4.41,0,0,1,.55-.15c.2,0,.42,0,.62,0a6.72,6.72,0,0,1,2,.53,17.91,17.91,0,0,1,1.7.84,23.36,23.36,0,0,1,3.1,2.09c-1.16-.46-2.29-.94-3.44-1.34-.57-.21-1.14-.4-1.71-.55a6.37,6.37,0,0,0-1.63-.27,3.42,3.42,0,0,0-1.35.57,13.59,13.59,0,0,0-1.4,1c-.93.74-1.83,1.56-2.69,2.38l-.43.41-.51-.26c-1-.52-2.13-1-3.2-1.46-.53-.22-1.07-.44-1.6-.6l-.37-.1-.17,0h-.07a2,2,0,0,0-.62.19,18.35,18.35,0,0,0-2.85,1.93C106.52,153.23,105.61,154,104.67,154.76Z" style="fill:#263238"></path></g></svg>
